<mxfile host="app.diagrams.net" agent="Mozilla/5.0 (X11; Linux x86_64) AppleWebKit/537.36 (KHTML, like Gecko) Chrome/131.0.0.0 Safari/537.36" version="26.2.13">
  <diagram name="第 1 页" id="6Rfoe-goF3gAWL0ZB-z-">
    <mxGraphModel dx="1367" dy="794" grid="1" gridSize="10" guides="1" tooltips="1" connect="1" arrows="1" fold="1" page="1" pageScale="1" pageWidth="827" pageHeight="1169" math="0" shadow="0">
      <root>
        <mxCell id="0" />
        <mxCell id="1" parent="0" />
        <mxCell id="9yYpdT37-bhHTmu5_V2q-3" value="" style="edgeStyle=orthogonalEdgeStyle;rounded=0;orthogonalLoop=1;jettySize=auto;html=1;" edge="1" parent="1" source="9yYpdT37-bhHTmu5_V2q-2" target="9yYpdT37-bhHTmu5_V2q-1">
          <mxGeometry relative="1" as="geometry" />
        </mxCell>
        <mxCell id="9yYpdT37-bhHTmu5_V2q-5" value="" style="edgeStyle=orthogonalEdgeStyle;rounded=0;orthogonalLoop=1;jettySize=auto;html=1;" edge="1" parent="1" source="9yYpdT37-bhHTmu5_V2q-1" target="9yYpdT37-bhHTmu5_V2q-4">
          <mxGeometry relative="1" as="geometry" />
        </mxCell>
        <mxCell id="9yYpdT37-bhHTmu5_V2q-1" value="&lt;font style=&quot;font-size: 17px;&quot;&gt;多路采集模块&lt;/font&gt;&lt;span style=&quot;font-size: 17px; background-color: transparent; color: light-dark(rgb(0, 0, 0), rgb(255, 255, 255));&quot;&gt;&amp;nbsp;&lt;/span&gt;" style="rounded=0;whiteSpace=wrap;html=1;" vertex="1" parent="1">
          <mxGeometry x="200" y="360" width="160" height="40" as="geometry" />
        </mxCell>
        <mxCell id="9yYpdT37-bhHTmu5_V2q-2" value="&lt;span style=&quot;font-size: 17px;&quot;&gt;本地相机设备&lt;/span&gt;" style="rounded=0;whiteSpace=wrap;html=1;" vertex="1" parent="1">
          <mxGeometry y="360" width="160" height="40" as="geometry" />
        </mxCell>
        <mxCell id="9yYpdT37-bhHTmu5_V2q-7" value="" style="edgeStyle=orthogonalEdgeStyle;rounded=0;orthogonalLoop=1;jettySize=auto;html=1;entryX=0;entryY=0.5;entryDx=0;entryDy=0;exitX=1;exitY=0.5;exitDx=0;exitDy=0;" edge="1" parent="1" source="9yYpdT37-bhHTmu5_V2q-4" target="9yYpdT37-bhHTmu5_V2q-6">
          <mxGeometry relative="1" as="geometry" />
        </mxCell>
        <mxCell id="9yYpdT37-bhHTmu5_V2q-4" value="&lt;font style=&quot;font-size: 17px;&quot;&gt;GPU H.265编码模块&lt;/font&gt;" style="rounded=0;whiteSpace=wrap;html=1;" vertex="1" parent="1">
          <mxGeometry x="400" y="360" width="200" height="40" as="geometry" />
        </mxCell>
        <mxCell id="9yYpdT37-bhHTmu5_V2q-9" value="" style="edgeStyle=orthogonalEdgeStyle;rounded=0;orthogonalLoop=1;jettySize=auto;html=1;exitX=0.6;exitY=1.05;exitDx=0;exitDy=0;exitPerimeter=0;entryX=0.335;entryY=0.01;entryDx=0;entryDy=0;entryPerimeter=0;" edge="1" parent="1" source="9yYpdT37-bhHTmu5_V2q-6" target="9yYpdT37-bhHTmu5_V2q-8">
          <mxGeometry relative="1" as="geometry" />
        </mxCell>
        <mxCell id="9yYpdT37-bhHTmu5_V2q-6" value="&lt;font style=&quot;font-size: 17px;&quot;&gt;封装与网络推流模块&lt;/font&gt;" style="rounded=0;whiteSpace=wrap;html=1;" vertex="1" parent="1">
          <mxGeometry x="640" y="360" width="200" height="40" as="geometry" />
        </mxCell>
        <mxCell id="9yYpdT37-bhHTmu5_V2q-13" value="" style="edgeStyle=orthogonalEdgeStyle;rounded=0;orthogonalLoop=1;jettySize=auto;html=1;exitX=-0.022;exitY=0.49;exitDx=0;exitDy=0;exitPerimeter=0;" edge="1" parent="1" source="9yYpdT37-bhHTmu5_V2q-28" target="9yYpdT37-bhHTmu5_V2q-12">
          <mxGeometry relative="1" as="geometry">
            <Array as="points">
              <mxPoint x="520" y="540" />
              <mxPoint x="520" y="500" />
            </Array>
          </mxGeometry>
        </mxCell>
        <mxCell id="9yYpdT37-bhHTmu5_V2q-15" value="" style="edgeStyle=orthogonalEdgeStyle;rounded=0;orthogonalLoop=1;jettySize=auto;html=1;entryX=1;entryY=0.5;entryDx=0;entryDy=0;exitX=0;exitY=0.5;exitDx=0;exitDy=0;" edge="1" parent="1" source="9yYpdT37-bhHTmu5_V2q-28" target="9yYpdT37-bhHTmu5_V2q-14">
          <mxGeometry relative="1" as="geometry">
            <Array as="points">
              <mxPoint x="520" y="540" />
              <mxPoint x="520" y="580" />
            </Array>
          </mxGeometry>
        </mxCell>
        <mxCell id="9yYpdT37-bhHTmu5_V2q-29" value="" style="edgeStyle=orthogonalEdgeStyle;rounded=0;orthogonalLoop=1;jettySize=auto;html=1;" edge="1" parent="1" source="9yYpdT37-bhHTmu5_V2q-8" target="9yYpdT37-bhHTmu5_V2q-28">
          <mxGeometry relative="1" as="geometry" />
        </mxCell>
        <mxCell id="9yYpdT37-bhHTmu5_V2q-8" value="&lt;font style=&quot;font-size: 17px;&quot;&gt;视频回灌入口&lt;/font&gt;" style="rounded=0;whiteSpace=wrap;html=1;" vertex="1" parent="1">
          <mxGeometry x="720" y="520" width="120" height="40" as="geometry" />
        </mxCell>
        <mxCell id="9yYpdT37-bhHTmu5_V2q-24" value="" style="edgeStyle=orthogonalEdgeStyle;rounded=0;orthogonalLoop=1;jettySize=auto;html=1;entryX=1;entryY=0.5;entryDx=0;entryDy=0;" edge="1" parent="1" source="9yYpdT37-bhHTmu5_V2q-12" target="9yYpdT37-bhHTmu5_V2q-25">
          <mxGeometry relative="1" as="geometry">
            <mxPoint x="200" y="540" as="targetPoint" />
            <Array as="points">
              <mxPoint x="240" y="500" />
              <mxPoint x="240" y="540" />
            </Array>
          </mxGeometry>
        </mxCell>
        <mxCell id="9yYpdT37-bhHTmu5_V2q-12" value="&lt;font style=&quot;font-size: 17px;&quot;&gt;虚拟摄像头映射模块&lt;/font&gt;" style="rounded=0;whiteSpace=wrap;html=1;" vertex="1" parent="1">
          <mxGeometry x="280" y="480" width="200" height="40" as="geometry" />
        </mxCell>
        <mxCell id="9yYpdT37-bhHTmu5_V2q-17" value="" style="edgeStyle=orthogonalEdgeStyle;rounded=0;orthogonalLoop=1;jettySize=auto;html=1;entryX=0.5;entryY=1;entryDx=0;entryDy=0;exitX=0.494;exitY=0.117;exitDx=0;exitDy=0;exitPerimeter=0;dashed=1;dashPattern=8 8;" edge="1" parent="1" source="9yYpdT37-bhHTmu5_V2q-30" target="9yYpdT37-bhHTmu5_V2q-2">
          <mxGeometry relative="1" as="geometry">
            <mxPoint x="200" y="500" as="targetPoint" />
            <Array as="points" />
          </mxGeometry>
        </mxCell>
        <mxCell id="9yYpdT37-bhHTmu5_V2q-14" value="&lt;font style=&quot;font-size: 17px;&quot;&gt;ROS桥接模块&amp;nbsp;&amp;nbsp;&lt;/font&gt;" style="rounded=0;whiteSpace=wrap;html=1;" vertex="1" parent="1">
          <mxGeometry x="280" y="560" width="160" height="40" as="geometry" />
        </mxCell>
        <mxCell id="9yYpdT37-bhHTmu5_V2q-26" value="" style="edgeStyle=orthogonalEdgeStyle;rounded=0;orthogonalLoop=1;jettySize=auto;html=1;entryX=1;entryY=0.5;entryDx=0;entryDy=0;" edge="1" parent="1" source="9yYpdT37-bhHTmu5_V2q-14" target="9yYpdT37-bhHTmu5_V2q-25">
          <mxGeometry relative="1" as="geometry">
            <mxPoint x="480" y="580" as="sourcePoint" />
            <mxPoint x="80" y="440" as="targetPoint" />
            <Array as="points">
              <mxPoint x="240" y="580" />
              <mxPoint x="240" y="540" />
            </Array>
          </mxGeometry>
        </mxCell>
        <mxCell id="9yYpdT37-bhHTmu5_V2q-25" value="&lt;span style=&quot;font-size: 17px;&quot;&gt;数据回放、数据回灌&lt;/span&gt;" style="rounded=0;whiteSpace=wrap;html=1;" vertex="1" parent="1">
          <mxGeometry y="520" width="200" height="40" as="geometry" />
        </mxCell>
        <mxCell id="9yYpdT37-bhHTmu5_V2q-28" value="&lt;font style=&quot;font-size: 17px;&quot;&gt;离线回灌模块&amp;nbsp;&lt;/font&gt;" style="rounded=0;whiteSpace=wrap;html=1;" vertex="1" parent="1">
          <mxGeometry x="560" y="520" width="120" height="40" as="geometry" />
        </mxCell>
        <mxCell id="9yYpdT37-bhHTmu5_V2q-31" value="" style="edgeStyle=orthogonalEdgeStyle;rounded=0;orthogonalLoop=1;jettySize=auto;html=1;dashed=1;dashPattern=8 8;exitX=0.399;exitY=-0.04;exitDx=0;exitDy=0;exitPerimeter=0;endArrow=none;startFill=0;" edge="1" parent="1" source="9yYpdT37-bhHTmu5_V2q-25" target="9yYpdT37-bhHTmu5_V2q-30">
          <mxGeometry relative="1" as="geometry" />
        </mxCell>
        <mxCell id="9yYpdT37-bhHTmu5_V2q-30" value="&lt;font style=&quot;font-size: 16px;&quot;&gt;训练&amp;nbsp;or 仿真&amp;nbsp;&lt;/font&gt;" style="text;html=1;align=center;verticalAlign=middle;resizable=0;points=[];autosize=1;strokeColor=none;fillColor=none;" vertex="1" parent="1">
          <mxGeometry x="20" y="450" width="120" height="30" as="geometry" />
        </mxCell>
      </root>
    </mxGraphModel>
  </diagram>
</mxfile>
